<svg width="1440" height="780" viewBox="0 0 1440 780" fill="none" xmlns="http://www.w3.org/2000/svg">
<rect width="1440" height="780" fill="#FFEEE6"/>
<rect width="1440" height="258.575" fill="white"/>
<mask id="mask0" mask-type="alpha" maskUnits="userSpaceOnUse" x="0" y="193" width="1440" height="86">
<rect x="1440" y="278" width="1440" height="85" transform="rotate(180 1440 278)" fill="white"/>
</mask>
<g mask="url(#mask0)">
<path fill-rule="evenodd" clip-rule="evenodd" d="M2160 278L720 278L-720 278L-720 223.478L-689.4 193L-660.001 223.478L-629.402 193L-600.002 223.478L-569.403 193L-540.003 223.478L-509.404 193L-480.004 223.478L-449.405 193L-420.005 223.478L-389.406 193L-360.007 223.478L-329.407 193L-300.008 223.478L-269.408 193L-240.009 223.478L-209.409 193L-180.01 223.478L-149.41 193L-120.011 223.478L-89.4116 193L-60.0122 223.478L-29.4126 193L-0.0131884 223.478L30.5862 193L59.9856 223.478L90.5852 193L119.985 223.478L150.584 193L179.984 223.478L210.583 193L239.982 223.478L270.582 193L299.981 223.478L330.581 193L359.98 223.478L390.58 193L419.979 223.478L450.578 193L479.978 223.478L510.577 193L539.977 223.478L570.576 193L599.976 223.478L630.575 193L659.975 223.478L690.574 193L719.974 223.478L720 221.266L720 223.478L750.599 193L779.999 223.478L810.598 193L839.998 223.478L870.597 193L899.997 223.478L930.596 193L959.996 223.478L990.595 193L1019.99 223.478L1050.59 193L1079.99 223.478L1110.59 193L1139.99 223.478L1170.59 193L1199.99 223.478L1230.59 193L1259.99 223.478L1290.59 193L1319.99 223.478L1350.59 193L1379.99 223.478L1410.59 193L1439.99 223.478L1470.59 193L1499.99 223.478L1530.59 193L1559.98 223.478L1590.58 193L1619.98 223.478L1650.58 193L1679.98 223.478L1710.58 193L1739.98 223.478L1770.58 193L1799.98 223.478L1830.58 193L1859.98 223.478L1890.58 193L1919.98 223.478L1950.58 193L1979.98 223.478L2010.58 193L2039.98 223.478L2070.58 193L2099.97 223.478L2130.57 193L2159.97 223.478L2160 221.266L2160 278Z" fill="#FFEEE6"/>
</g>
</svg>
